<svg width="69" height="67" fill="none" xmlns="http://www.w3.org/2000/svg"><path fill-rule="evenodd" clip-rule="evenodd" d="M67.211 66.264H1.884a1.054 1.054 0 01-1.053-1.053v-6.147c0-.581.471-1.053 1.053-1.053h65.327c.582 0 1.054.471 1.054 1.053v6.147c0 .581-.472 1.053-1.054 1.053zM2.938 64.157h63.22v-4.039H2.938v4.04z" fill="#BCBCBC"/><path fill-rule="evenodd" clip-rule="evenodd" d="M40.735 60.118H28.36a1.054 1.054 0 01-1.053-1.054v-4.123c0-3.993 3.248-7.241 7.24-7.241 3.993 0 7.242 3.248 7.242 7.24v4.124c0 .582-.472 1.054-1.054 1.054zM29.414 58.01h10.267v-3.07a5.14 5.14 0 00-5.133-5.133 5.14 5.14 0 00-5.134 5.134v3.07z" fill="#BCBCBC"/><path fill-rule="evenodd" clip-rule="evenodd" d="M27.473 32.698a1.05 1.05 0 01-.628-.209l-12.8-9.536a1.054 1.054 0 01-.216-1.475L28.402 1.92a1.054 1.054 0 011.474-.215l12.8 9.536a1.054 1.054 0 01.215 1.474l-4.848 6.508a1.054 1.054 0 11-1.69-1.259l4.22-5.663-11.111-8.277-13.313 17.869 11.11 8.278 4.219-5.663a1.054 1.054 0 011.69 1.259l-4.849 6.507a1.052 1.052 0 01-.846.425z" fill="#10B981"/><path fill-rule="evenodd" clip-rule="evenodd" d="M39.169 10.996a1.054 1.054 0 01-.844-1.683L40.4 6.525l-5.357-3.991-2.076 2.786a1.054 1.054 0 01-1.69-1.259l2.706-3.63a1.054 1.054 0 011.475-.216l7.047 5.25a1.054 1.054 0 01.215 1.475l-2.706 3.631a1.051 1.051 0 01-.845.425zm-17.278 23.19a1.05 1.05 0 01-.629-.209l-7.047-5.25A1.054 1.054 0 0114 27.252l2.706-3.631a1.054 1.054 0 111.69 1.259l-2.077 2.786 5.358 3.992 2.076-2.787a1.054 1.054 0 011.69 1.26l-2.706 3.63a1.052 1.052 0 01-.846.425z" fill="#10B981"/><path fill-rule="evenodd" clip-rule="evenodd" d="M34.75 27a5.097 5.097 0 01-3.057-1.019 5.1 5.1 0 01-2.013-3.375 5.1 5.1 0 01.963-3.809 5.1 5.1 0 013.375-2.012 5.1 5.1 0 013.81.963 5.1 5.1 0 012.012 3.374 5.1 5.1 0 01-.963 3.81 5.1 5.1 0 01-3.375 2.013 5.26 5.26 0 01-.753.054zm.016-8.163c-.147 0-.295.011-.444.033-.8.117-1.506.538-1.989 1.186a3.007 3.007 0 00-.568 2.246c.117.8.538 1.506 1.187 1.99a3.008 3.008 0 002.245.567 3.006 3.006 0 001.99-1.186 3.006 3.006 0 00.568-2.246 3.006 3.006 0 00-1.187-1.99 3.003 3.003 0 00-1.802-.6z" fill="#BCBCBC"/><path fill-rule="evenodd" clip-rule="evenodd" d="M40.736 56.308a1.053 1.053 0 01-.489-1.988 17.559 17.559 0 009.464-15.609c0-7.235-4.537-13.84-11.29-16.434a1.054 1.054 0 11.757-1.967 19.67 19.67 0 019.091 7.117 19.586 19.586 0 013.549 11.284c0 3.67-1.016 7.25-2.937 10.355a19.778 19.778 0 01-7.658 7.122c-.156.081-.323.12-.487.12z" fill="#BCBCBC"/><path fill-rule="evenodd" clip-rule="evenodd" d="M39.525 52.318a1.054 1.054 0 01-.538-1.96 13.581 13.581 0 006.646-11.646c0-5.588-3.508-10.671-8.73-12.65a1.054 1.054 0 11.747-1.97 15.596 15.596 0 017.257 5.641 15.532 15.532 0 012.834 8.979 15.68 15.68 0 01-1.74 7.174 15.761 15.761 0 01-5.94 6.285 1.05 1.05 0 01-.536.147zm-6.989 3.295H17.404a1.054 1.054 0 01-1.053-1.053v-6.645a1.054 1.054 0 012.107 0v5.591h14.078a1.054 1.054 0 010 2.107z" fill="#BCBCBC"/><path fill-rule="evenodd" clip-rule="evenodd" d="M23.902 48.97H10.906a3.13 3.13 0 01-3.127-3.128 3.13 3.13 0 013.127-3.127h12.996a3.13 3.13 0 013.128 3.127 3.13 3.13 0 01-3.128 3.127zm-12.996-4.148a1.021 1.021 0 000 2.04h12.996a1.021 1.021 0 000-2.04H10.906z" fill="#10B981"/><path fill-rule="evenodd" clip-rule="evenodd" d="M34.548 57.297a2.74 2.74 0 01-2.738-2.737 2.74 2.74 0 012.738-2.738 2.74 2.74 0 012.737 2.738 2.74 2.74 0 01-2.737 2.737zm0-3.367a.631.631 0 10.001 1.262.631.631 0 00-.001-1.263z" fill="#BCBCBC"/></svg>