<svg width="75" height="76" fill="none" xmlns="http://www.w3.org/2000/svg"><path d="M37.5 10.5a3.75 3.75 0 100-7.5 3.75 3.75 0 000 7.5zm2.394 2.019a6.214 6.214 0 01-4.787.001l.247 13.076A3.72 3.72 0 0136.25 28c0 .874-.313 1.669-.816 2.308l.07 3.942h3.993l.07-3.942A3.713 3.713 0 0138.751 28c0-.926.35-1.764.909-2.419l.236-13.061-.002-.001zm-25.235 5.847c.076.072 2.134 1.965 6.3.922a1.24 1.24 0 011.076.23c.008.005 1.301.982 2.965.982 1.976 0 2.82-.824 2.854-.86a1.33 1.33 0 01.909-.39h3.97l-.05-2.733c-3.364-.663-5.158-2.727-6.743-4.58C24.133 9.824 22.573 8 18.775 8c-3.024 0-6.505 1.643-9.871 3.232-2.11.997-4.104 1.938-5.981 2.482a.55.55 0 00-.41.44.648.648 0 00.236.64c1.111.864 2.639 1.114 4.542.731a1.247 1.247 0 011.433.83c.092.256 1.057 2.604 4.749 1.684.423-.107.877.018 1.187.328h-.001zM32.5 68a1.25 1.25 0 001.117-.728l-.09-4.893c-.168-.07-.357-.136-.533-.204-1.134 1.391-1.743 2.921-1.743 4.575 0 .69.559 1.25 1.249 1.25z" fill="#BCBCBC"/><path d="M42.5 68c.69 0 1.25-.56 1.25-1.25 0-1.9-.756-3.648-2.25-5.194-1.13-1.154-2.661-2.205-4.546-3.119-1.583-.772-3.45-1.465-5.556-2.057a3.588 3.588 0 01-2.648-3.491c0-.505.105-.987.291-1.425a8.648 8.648 0 01-2.291-.96c-.319.746-.5 1.55-.5 2.383 0 2.725 1.837 5.15 4.466 5.898.815.234 1.579.467 2.304.726 2.13.753 3.883 1.614 5.206 2.56 2.499 1.768 3.024 3.52 3.024 4.679 0 .69.56 1.25 1.25 1.25zm5.142-18.615a6.116 6.116 0 00-5.03-2.635H31.25A3.755 3.755 0 0127.5 43a3.7 3.7 0 01.253-1.321 8.632 8.632 0 01-2.424-.638A6.11 6.11 0 0025 43a6.24 6.24 0 002.156 4.718 6.2 6.2 0 004.094 1.532h11.362a3.643 3.643 0 013.638 3.638 3.59 3.59 0 01-2.653 3.492 32.92 32.92 0 00-2.025.634l-.022 1.301c.41.309.795.626 1.154.955a43.713 43.713 0 011.578-.485c2.63-.749 4.468-3.172 4.468-5.897 0-1.27-.384-2.48-1.108-3.503zM25.395 38.269a6.147 6.147 0 003.355.981h15A3.755 3.755 0 0147.5 43c0 .865-.306 1.651-.799 2.286.738.398 1.41.91 2.008 1.51A6.237 6.237 0 0050 43a6.257 6.257 0 00-6.25-6.25h-15A3.755 3.755 0 0125 33a3.755 3.755 0 013.75-3.75h3.75a1.25 1.25 0 000-2.5h-3.75A6.257 6.257 0 0022.5 33a6.207 6.207 0 002.894 5.269z" fill="#10B981"/><path d="M39.076 56.734l.088-4.984h-3.329l.063 3.506c.756.298 1.482.606 2.15.933.36.173.69.361 1.028.545zm.233-12.484l.044-2.5h-3.706l.044 2.5h3.618zm-.436 23.401a3.696 3.696 0 01-.123-.901c0-.804-.701-1.743-1.972-2.641a12.85 12.85 0 00-.727-.47l.149 8.087A1.305 1.305 0 0037.5 73c.704 0 1.288-.571 1.3-1.274l.073-4.075zM67.71 15.525c1.903.384 3.433.135 4.548-.735a.647.647 0 00.23-.636.55.55 0 00-.4-.438c-1.885-.547-3.88-1.487-5.99-2.483C62.734 9.643 59.25 8 56.229 8c-3.798 0-5.358 1.825-7.165 3.936-1.584 1.854-3.378 3.915-6.738 4.58l-.049 2.733h3.964c.353 0 .69.149.928.411.015.015.858.839 2.835.839 1.663 0 2.957-.978 2.97-.988a1.277 1.277 0 011.07-.225c4.17 1.043 6.226-.852 6.312-.932a1.267 1.267 0 011.176-.318c3.68.918 4.655-1.427 4.754-1.697.21-.581.819-.935 1.428-.815l-.003.001z" fill="#BCBCBC"/><path d="M46.25 26.75H42.5a1.25 1.25 0 000 2.5h3.75A3.755 3.755 0 0150 33a3.73 3.73 0 01-1.285 2.804 8.862 8.862 0 011.839 1.706A6.2 6.2 0 0052.5 33a6.258 6.258 0 00-6.251-6.25z" fill="#10B981"/></svg>