<svg width="51" height="54" fill="none" xmlns="http://www.w3.org/2000/svg"><path fill-rule="evenodd" clip-rule="evenodd" d="M11.846 53.512a11.135 11.135 0 01-7.925-3.283l-.623-.623a11.135 11.135 0 01-3.283-7.925c0-2.994 1.166-5.808 3.283-7.925l8.686-8.686a.82.82 0 011.159 0l15.314 15.315a.82.82 0 010 1.158l-8.686 8.686a11.135 11.135 0 01-7.925 3.283zm.717-26.704l-8.106 8.106c-3.731 3.731-3.731 9.802 0 13.533l.623.623c3.73 3.731 9.802 3.731 13.532 0l8.107-8.106-14.156-14.156z" fill="#10B981"/><path fill-rule="evenodd" clip-rule="evenodd" d="M15.475 29.38c-.21 0-.42-.08-.58-.24L6.21 20.456a11.135 11.135 0 01-3.283-7.925c0-2.994 1.166-5.809 3.283-7.926l.622-.623A11.135 11.135 0 0114.758.698c2.994 0 5.808 1.166 7.925 3.283l8.686 8.686a.82.82 0 010 1.159L16.054 29.141c-.16.16-.37.24-.58.24zm-.717-27.038A9.54 9.54 0 007.992 5.14l-.623.623a9.507 9.507 0 00-2.803 6.767c0 2.556.995 4.958 2.803 6.766l8.106 8.106 14.156-14.155-8.107-8.107a9.54 9.54 0 00-6.766-2.798z" fill="#111827"/><path fill-rule="evenodd" clip-rule="evenodd" d="M12.563 26.469a.82.82 0 01-.58-1.399L27.299 9.755a.82.82 0 011.16 1.16L13.142 26.228c-.16.16-.37.24-.58.24z" fill="#111827"/><path fill-rule="evenodd" clip-rule="evenodd" d="M24.966 44.696c-.21 0-.42-.08-.58-.24L9.072 29.14a.82.82 0 111.159-1.16l15.314 15.316a.82.82 0 01-.58 1.399z" fill="#10B981"/><path fill-rule="evenodd" clip-rule="evenodd" d="M21.29 30.221a.82.82 0 01-.58-1.399l2.818-2.818a.82.82 0 011.159 1.159l-2.818 2.818c-.16.16-.37.24-.58.24z" fill="#111827"/><path fill-rule="evenodd" clip-rule="evenodd" d="M24.107 30.221c-.21 0-.42-.08-.58-.24l-2.817-2.818a.82.82 0 111.159-1.16l2.818 2.819a.82.82 0 01-.58 1.399zM46.422 22.5a.82.82 0 01-.58-1.4l2.818-2.818a.82.82 0 011.16 1.159L47 22.259c-.16.16-.37.24-.58.24z" fill="#111827"/><path fill-rule="evenodd" clip-rule="evenodd" d="M49.24 22.5c-.21 0-.42-.08-.58-.241l-2.818-2.818a.82.82 0 011.159-1.159l2.818 2.818a.82.82 0 01-.58 1.4zm-8.658 25.59a.82.82 0 01-.58-1.399l2.818-2.818a.82.82 0 111.16 1.159l-2.82 2.818c-.16.16-.37.24-.58.24z" fill="#111827"/><path fill-rule="evenodd" clip-rule="evenodd" d="M43.4 48.09c-.21 0-.42-.08-.58-.24l-2.818-2.818a.82.82 0 011.16-1.16l2.817 2.819a.82.82 0 01-.58 1.399zm-4.642-24.411a2.437 2.437 0 01-2.434-2.435 2.437 2.437 0 012.434-2.434 2.437 2.437 0 012.434 2.434 2.437 2.437 0 01-2.434 2.435zm0-3.23a.796.796 0 000 1.59.796.796 0 000-1.59zm0 18.515a2.437 2.437 0 01-2.434-2.434 2.437 2.437 0 012.434-2.434 2.437 2.437 0 012.434 2.434 2.437 2.437 0 01-2.434 2.434zm0-3.23a.796.796 0 000 1.59.796.796 0 000-1.59zm7.642-4.413a2.437 2.437 0 01-2.433-2.434 2.437 2.437 0 012.434-2.434 2.437 2.437 0 012.434 2.434 2.437 2.437 0 01-2.434 2.434zm0-3.23a.796.796 0 000 1.591.796.796 0 000-1.59zm-15.284 3.23a2.437 2.437 0 01-2.434-2.434 2.437 2.437 0 012.434-2.434 2.437 2.437 0 012.434 2.434 2.437 2.437 0 01-2.434 2.434zm0-3.23a.796.796 0 10.001 1.593.796.796 0 00-.001-1.592z" fill="#111827"/><path fill-rule="evenodd" clip-rule="evenodd" d="M45.26 28.565c-.21 0-.42-.08-.58-.24l-5.36-5.36a.82.82 0 011.159-1.159l5.36 5.36a.82.82 0 01-.58 1.4zm-7.643 7.643c-.21 0-.42-.08-.58-.24l-5.36-5.36a.82.82 0 011.16-1.159l5.36 5.36a.82.82 0 01-.58 1.399zm-5.36-7.643a.82.82 0 01-.58-1.399l5.36-5.36a.82.82 0 011.16 1.16l-5.36 5.36a.822.822 0 01-.58.24zm7.643 7.643a.82.82 0 01-.58-1.399l5.36-5.36a.82.82 0 111.16 1.16l-5.36 5.359c-.16.16-.37.24-.58.24z" fill="#111827"/></svg>