<svg width="48" height="61" fill="none" xmlns="http://www.w3.org/2000/svg"><path fill-rule="evenodd" clip-rule="evenodd" d="M44.527 41.943a.937.937 0 01-.936-.937V27.043a.937.937 0 011.873 0v13.963c0 .518-.42.937-.937.937zM21.782 60.091a10.143 10.143 0 01-7.22-2.99 10.143 10.143 0 01-2.99-7.22v-6.124a.937.937 0 111.873 0v6.124c0 4.597 3.74 8.337 8.337 8.337 4.597 0 8.336-3.74 8.336-8.337V7.822c0-2.05.799-3.976 2.248-5.425a7.64 7.64 0 015.65-2.244c1.983.057 3.854.9 5.267 2.372 1.406 1.466 2.18 3.367 2.18 5.354v12.466a.937.937 0 11-1.873 0V7.879c0-3.085-2.577-5.766-5.628-5.854a5.75 5.75 0 00-4.272 1.697 5.76 5.76 0 00-1.698 4.1v42.059c0 2.727-1.063 5.291-2.991 7.22a10.142 10.142 0 01-7.22 2.99z" fill="#10B981"/><path fill-rule="evenodd" clip-rule="evenodd" d="M23.488 31.78H1.527a.937.937 0 010-1.874h21.961a.937.937 0 010 1.873zm0-21.41H1.527a.937.937 0 010-1.873h21.961a.937.937 0 010 1.873z" fill="#111827"/><path fill-rule="evenodd" clip-rule="evenodd" d="M14.052 44.693h-3.089a2.744 2.744 0 01-2.74-2.74v-1.827H5.98a5.395 5.395 0 01-5.39-5.39V2.994A2.846 2.846 0 013.434.15h18.148a2.846 2.846 0 012.843 2.843v31.744a5.395 5.395 0 01-5.39 5.39h-2.242v1.825a2.744 2.744 0 01-2.74 2.741zM3.434 2.023a.971.971 0 00-.97.97v31.744a3.52 3.52 0 003.516 3.516h3.18c.516 0 .936.42.936.937v2.762c0 .479.389.868.867.868h3.09c.478 0 .867-.39.867-.868V39.19c0-.517.42-.936.937-.936h3.18a3.52 3.52 0 003.515-3.516V2.993a.971.971 0 00-.97-.97H3.434zm41.093 25.956a2.97 2.97 0 01-2.967-2.967v-4.668c0-.517.42-.936.937-.936h4.06c.517 0 .937.42.937.936v4.668a2.97 2.97 0 01-2.967 2.967zm-1.093-6.698v3.731a1.095 1.095 0 002.187 0v-3.73h-2.187z" fill="#111827"/></svg>