<svg width="60" height="60" viewBox="0 0 60 60" fill="none" xmlns="http://www.w3.org/2000/svg">
<path d="M37.35 16.3999H46.3L44.325 18.3999C43.8594 18.8683 43.598 19.5019 43.598 20.1624C43.598 20.8229 43.8594 21.4565 44.325 21.9249C44.7934 22.3905 45.427 22.6519 46.0875 22.6519C46.748 22.6519 47.3816 22.3905 47.85 21.9249L54.1 15.6749C54.5656 15.2065 54.827 14.5729 54.827 13.9124C54.827 13.252 54.5656 12.6183 54.1 12.1499L47.85 5.89991C47.3718 5.49035 46.7566 5.27633 46.1274 5.30064C45.4982 5.32494 44.9013 5.58577 44.4561 6.03101C44.0109 6.47624 43.75 7.07309 43.7257 7.70228C43.7014 8.33147 43.9154 8.94666 44.325 9.42491L46.3 11.3999H37.35C36.687 11.3999 36.0511 11.6633 35.5822 12.1321C35.1134 12.601 34.85 13.2369 34.85 13.8999C34.85 14.563 35.1134 15.1988 35.5822 15.6677C36.0511 16.1365 36.687 16.3999 37.35 16.3999ZM48.6 32.4999C48.05 32.4999 47.475 32.3249 46.925 32.1999C45.8112 31.9545 44.7167 31.6286 43.65 31.2249C42.4902 30.803 41.2154 30.8249 40.0708 31.2864C38.9262 31.748 37.9927 32.6165 37.45 33.7249L36.9 34.8499C34.465 33.4954 32.2275 31.813 30.25 29.8499C28.2869 27.8725 26.6046 25.6349 25.25 23.1999L26.3 22.4999C27.4084 21.9572 28.277 21.0237 28.7385 19.8791C29.2 18.7345 29.2219 17.4597 28.8 16.2999C28.4031 15.231 28.0774 14.1369 27.825 13.0249C27.7 12.4749 27.6 11.8999 27.525 11.3249C27.2214 9.56396 26.2991 7.96927 24.9241 6.82801C23.5491 5.68676 21.8117 5.07394 20.025 5.09991H12.525C11.4476 5.0898 10.3806 5.31195 9.39678 5.75124C8.41293 6.19053 7.53528 6.83665 6.82358 7.64562C6.11188 8.45458 5.58284 9.4074 5.27248 10.4392C4.96211 11.471 4.87771 12.5576 5.02501 13.6249C6.35685 24.0984 11.1401 33.8296 18.6191 41.2815C26.0982 48.7334 35.8468 53.4812 46.325 54.7749H47.275C49.1185 54.7776 50.8985 54.1012 52.275 52.8749C53.0659 52.1675 53.6977 51.3004 54.1287 50.3307C54.5596 49.3611 54.7799 48.311 54.775 47.2499V39.7499C54.7444 38.0134 54.112 36.3413 52.9859 35.0191C51.8597 33.6969 50.3095 32.8065 48.6 32.4999ZM49.85 47.4999C49.8496 47.8549 49.7735 48.2057 49.627 48.529C49.4804 48.8523 49.2667 49.1406 49 49.3749C48.7207 49.6161 48.394 49.7963 48.041 49.9039C47.688 50.0115 47.3164 50.0442 46.95 49.9999C37.5873 48.7994 28.8906 44.5161 22.2318 37.8256C15.573 31.1352 11.331 22.4183 10.175 13.0499C10.1352 12.6837 10.1701 12.3132 10.2775 11.9609C10.3849 11.6085 10.5627 11.2816 10.8 10.9999C11.0343 10.7332 11.3227 10.5195 11.646 10.373C11.9692 10.2264 12.32 10.1504 12.675 10.1499H20.175C20.7564 10.137 21.3241 10.3271 21.7804 10.6876C22.2367 11.0481 22.553 11.5563 22.675 12.1249C22.775 12.8082 22.9 13.4832 23.05 14.1499C23.3388 15.4678 23.7232 16.7629 24.2 18.0249L20.7 19.6499C20.4008 19.7872 20.1316 19.9823 19.9079 20.2239C19.6842 20.4655 19.5105 20.749 19.3967 21.0579C19.2829 21.3669 19.2312 21.6952 19.2446 22.0242C19.2581 22.3532 19.3364 22.6763 19.475 22.9749C23.073 30.6818 29.2681 36.8769 36.975 40.4749C37.5837 40.725 38.2664 40.725 38.875 40.4749C39.1868 40.3634 39.4733 40.191 39.7179 39.9679C39.9626 39.7447 40.1604 39.4752 40.3 39.1749L41.85 35.6749C43.1424 36.1371 44.4615 36.5211 45.8 36.8249C46.4667 36.9749 47.1417 37.0999 47.825 37.1999C48.3936 37.3219 48.9019 37.6383 49.2623 38.0946C49.6228 38.5509 49.8129 39.1185 49.8 39.6999L49.85 47.4999Z" fill="#10B981"/>
</svg>
