<svg width="30" height="30" viewBox="0 0 30 30" fill="none" xmlns="http://www.w3.org/2000/svg">
<rect width="30" height="30" rx="15" fill="#10B981"/>
<path d="M17.5001 14.1667H15.8334V10.8334C15.8334 10.6124 15.7456 10.4004 15.5893 10.2442C15.4331 10.0879 15.2211 10.0001 15.0001 10.0001C14.7791 10.0001 14.5671 10.0879 14.4108 10.2442C14.2545 10.4004 14.1668 10.6124 14.1668 10.8334V15.0001C14.1668 15.2211 14.2545 15.4331 14.4108 15.5893C14.5671 15.7456 14.7791 15.8334 15.0001 15.8334H17.5001C17.7211 15.8334 17.9331 15.7456 18.0893 15.5893C18.2456 15.4331 18.3334 15.2211 18.3334 15.0001C18.3334 14.7791 18.2456 14.5671 18.0893 14.4108C17.9331 14.2545 17.7211 14.1667 17.5001 14.1667ZM15.0001 6.66675C13.3519 6.66675 11.7407 7.15549 10.3703 8.07117C8.99992 8.98685 7.93182 10.2883 7.30109 11.8111C6.67036 13.3338 6.50533 15.0093 6.82687 16.6258C7.14842 18.2423 7.94209 19.7272 9.10753 20.8926C10.273 22.0581 11.7578 22.8517 13.3743 23.1733C14.9908 23.4948 16.6664 23.3298 18.1891 22.6991C19.7118 22.0683 21.0133 21.0002 21.929 19.6298C22.8447 18.2594 23.3334 16.6483 23.3334 15.0001C23.3334 13.9057 23.1179 12.8221 22.6991 11.8111C22.2803 10.8 21.6665 9.88135 20.8926 9.10752C20.1188 8.3337 19.2002 7.71987 18.1891 7.30109C17.1781 6.8823 16.0944 6.66675 15.0001 6.66675ZM15.0001 21.6667C13.6815 21.6667 12.3926 21.2758 11.2963 20.5432C10.2 19.8107 9.34547 18.7695 8.84089 17.5513C8.3363 16.3331 8.20428 14.9927 8.46152 13.6995C8.71875 12.4063 9.35369 11.2184 10.286 10.286C11.2184 9.35369 12.4063 8.71875 13.6995 8.46151C14.9927 8.20428 16.3331 8.3363 17.5513 8.84088C18.7695 9.34547 19.8107 10.2 20.5432 11.2963C21.2758 12.3926 21.6668 13.6815 21.6668 15.0001C21.6668 16.7682 20.9644 18.4639 19.7141 19.7141C18.4639 20.9644 16.7682 21.6667 15.0001 21.6667Z" fill="white"/>
</svg>
