<svg width="60" height="60" viewBox="0 0 60 60" fill="none" xmlns="http://www.w3.org/2000/svg">
<path d="M50.2751 43.725L37.5001 21.825V10H40.0001C40.6632 10 41.299 9.73661 41.7679 9.26777C42.2367 8.79893 42.5001 8.16304 42.5001 7.5C42.5001 6.83696 42.2367 6.20107 41.7679 5.73223C41.299 5.26339 40.6632 5 40.0001 5H20.0001C19.3371 5 18.7012 5.26339 18.2324 5.73223C17.7635 6.20107 17.5001 6.83696 17.5001 7.5C17.5001 8.16304 17.7635 8.79893 18.2324 9.26777C18.7012 9.73661 19.3371 10 20.0001 10H22.5001V21.825L9.72512 43.725C9.06148 44.8643 8.70991 46.1584 8.70585 47.4769C8.70179 48.7954 9.04538 50.0916 9.70199 51.235C10.3586 52.3784 11.305 53.3284 12.4459 53.9894C13.5867 54.6504 14.8816 54.999 16.2001 55H43.7001C45.0186 54.999 46.3135 54.6504 47.4544 53.9894C48.5952 53.3284 49.5416 52.3784 50.1982 51.235C50.8549 50.0916 51.1985 48.7954 51.1944 47.4769C51.1903 46.1584 50.8388 44.8643 50.1751 43.725H50.2751ZM27.1501 23.725C27.3706 23.3537 27.4912 22.9317 27.5001 22.5V10H32.5001V22.5C32.5047 22.9402 32.6254 23.3714 32.8501 23.75L35.0001 27.5H25.0001L27.1501 23.725ZM45.9501 48.725C45.732 49.1028 45.4188 49.417 45.0416 49.6363C44.6644 49.8556 44.2364 49.9724 43.8001 49.975H16.3001C15.8638 49.9724 15.4358 49.8556 15.0587 49.6363C14.6815 49.417 14.3683 49.1028 14.1501 48.725C13.9307 48.345 13.8152 47.9138 13.8152 47.475C13.8152 47.0362 13.9307 46.605 14.1501 46.225L22.0751 32.5H37.9501L45.9501 46.25C46.1695 46.63 46.2851 47.0612 46.2851 47.5C46.2851 47.9388 46.1695 48.37 45.9501 48.75V48.725ZM25.0001 37.5C24.5057 37.5 24.0223 37.6466 23.6112 37.9213C23.2001 38.196 22.8796 38.5865 22.6904 39.0433C22.5012 39.5001 22.4517 40.0028 22.5482 40.4877C22.6446 40.9727 22.8827 41.4181 23.2324 41.7678C23.582 42.1174 24.0274 42.3555 24.5124 42.452C24.9973 42.5484 25.5 42.4989 25.9568 42.3097C26.4136 42.1205 26.8041 41.8 27.0788 41.3889C27.3535 40.9778 27.5001 40.4945 27.5001 40C27.5001 39.337 27.2367 38.7011 26.7679 38.2322C26.299 37.7634 25.6632 37.5 25.0001 37.5ZM35.0001 40C34.5057 40 34.0223 40.1466 33.6112 40.4213C33.2001 40.696 32.8796 41.0865 32.6904 41.5433C32.5012 42.0001 32.4517 42.5028 32.5482 42.9877C32.6446 43.4727 32.8827 43.9181 33.2324 44.2678C33.582 44.6174 34.0274 44.8555 34.5124 44.952C34.9973 45.0484 35.5 44.9989 35.9568 44.8097C36.4136 44.6205 36.8041 44.3 37.0788 43.8889C37.3535 43.4778 37.5001 42.9945 37.5001 42.5C37.5001 41.837 37.2367 41.2011 36.7679 40.7322C36.299 40.2634 35.6632 40 35.0001 40Z" fill="#10B981"/>
</svg>
