<svg width="30" height="30" viewBox="0 0 30 30" fill="none" xmlns="http://www.w3.org/2000/svg">
<rect width="30" height="30" rx="15" fill="#10B981"/>
<path d="M20 8.73342C18.6739 7.40734 16.8754 6.66235 15 6.66235C13.1247 6.66235 11.3261 7.40734 10 8.73342C8.67394 10.0595 7.92896 11.8581 7.92896 13.7334C7.92896 15.6088 8.67394 17.4073 10 18.7334L14.3917 23.1334C14.4692 23.2115 14.5613 23.2735 14.6629 23.3158C14.7644 23.3581 14.8733 23.3799 14.9834 23.3799C15.0934 23.3799 15.2023 23.3581 15.3038 23.3158C15.4054 23.2735 15.4976 23.2115 15.575 23.1334L20 18.6918C21.3206 17.3712 22.0624 15.5801 22.0624 13.7126C22.0624 11.845 21.3206 10.054 20 8.73342ZM18.8084 17.5001L15 21.3251L11.1917 17.5001C10.4393 16.747 9.92709 15.7878 9.71977 14.7437C9.51245 13.6995 9.61935 12.6174 10.0269 11.634C10.4345 10.6506 11.1245 9.81013 12.0097 9.21882C12.8949 8.62751 13.9355 8.31191 15 8.31191C16.0645 8.31191 17.1052 8.62751 17.9903 9.21882C18.8755 9.81013 19.5655 10.6506 19.9731 11.634C20.3807 12.6174 20.4876 13.6995 20.2803 14.7437C20.073 15.7878 19.5607 16.747 18.8084 17.5001ZM12.5 11.1751C11.8273 11.8499 11.4495 12.7639 11.4495 13.7168C11.4495 14.6696 11.8273 15.5836 12.5 16.2584C12.9998 16.7591 13.6363 17.101 14.3297 17.2413C15.0231 17.3815 15.7425 17.3139 16.3976 17.0469C17.0527 16.7799 17.6143 16.3253 18.0121 15.7403C18.4098 15.1553 18.626 14.4658 18.6334 13.7584C18.6371 13.2861 18.5461 12.8178 18.3658 12.3812C18.1854 11.9447 17.9194 11.5487 17.5834 11.2168C17.2531 10.8789 16.8593 10.6097 16.4245 10.4246C15.9898 10.2396 15.5228 10.1423 15.0504 10.1384C14.5779 10.1346 14.1094 10.2242 13.6717 10.4021C13.234 10.58 12.8358 10.8427 12.5 11.1751ZM16.4084 15.0751C16.0926 15.3957 15.6752 15.5967 15.2276 15.6436C14.7801 15.6906 14.3301 15.5806 13.9546 15.3325C13.5791 15.0844 13.3015 14.7136 13.1692 14.2835C13.0369 13.8534 13.0581 13.3906 13.2292 12.9744C13.4002 12.5581 13.7106 12.2143 14.1072 12.0015C14.5037 11.7888 14.9619 11.7204 15.4033 11.8081C15.8447 11.8958 16.2419 12.1341 16.5271 12.4822C16.8123 12.8303 16.9677 13.2667 16.9667 13.7168C16.9546 14.2311 16.7388 14.7197 16.3667 15.0751H16.4084Z" fill="white"/>
</svg>
