<svg width="60" height="60" viewBox="0 0 60 60" fill="none" xmlns="http://www.w3.org/2000/svg">
<path d="M42.5 15H37.5V10H42.5C43.163 10 43.7989 9.73661 44.2678 9.26777C44.7366 8.79893 45 8.16304 45 7.5C45 6.83696 44.7366 6.20107 44.2678 5.73223C43.7989 5.26339 43.163 5 42.5 5H22.5C19.1848 5 16.0054 6.31696 13.6612 8.66117C11.317 11.0054 10 14.1848 10 17.5V52.5C10 53.163 10.2634 53.7989 10.7322 54.2678C11.2011 54.7366 11.837 55 12.5 55C13.163 55 13.7989 54.7366 14.2678 54.2678C14.7366 53.7989 15 53.163 15 52.5V17.5C15 15.5109 15.7902 13.6032 17.1967 12.1967C18.6032 10.7902 20.5109 10 22.5 10H32.5V15H27.5C25.5109 15 23.6032 15.7902 22.1967 17.1967C20.7902 18.6032 20 20.5109 20 22.5V34.825C19.9995 36.0623 20.3052 37.2804 20.8897 38.3709C21.4742 39.4614 22.3194 40.3904 23.35 41.075L27.5 43.85V45C27.5 46.3261 28.0268 47.5979 28.9645 48.5355C29.9021 49.4732 31.1739 50 32.5 50V52.5C32.5 53.163 32.7634 53.7989 33.2322 54.2678C33.7011 54.7366 34.337 55 35 55C35.663 55 36.2989 54.7366 36.7678 54.2678C37.2366 53.7989 37.5 53.163 37.5 52.5V50C38.8261 50 40.0979 49.4732 41.0355 48.5355C41.9732 47.5979 42.5 46.3261 42.5 45V43.85L46.65 41.075C47.6806 40.3904 48.5258 39.4614 49.1103 38.3709C49.6948 37.2804 50.0005 36.0623 50 34.825V22.5C50 20.5109 49.2098 18.6032 47.8033 17.1967C46.3968 15.7902 44.4891 15 42.5 15ZM40 27.5H45V30H42.5C41.837 30 41.2011 30.2634 40.7322 30.7322C40.2634 31.2011 40 31.837 40 32.5C40 33.163 40.2634 33.7989 40.7322 34.2678C41.2011 34.7366 41.837 35 42.5 35H45C44.9733 35.3795 44.8603 35.7479 44.6697 36.0772C44.4791 36.4065 44.2158 36.6879 43.9 36.9L38.65 40.425C38.3015 40.6486 38.0139 40.9552 37.8132 41.3174C37.6125 41.6796 37.5048 42.0859 37.5 42.5V45H32.5V42.5C32.4979 42.0882 32.3941 41.6834 32.1978 41.3214C32.0015 40.9594 31.7189 40.6515 31.375 40.425L26.125 36.9C25.7811 36.6735 25.4985 36.3656 25.3022 36.0036C25.1059 35.6416 25.0021 35.2368 25 34.825V22.5C25 21.837 25.2634 21.2011 25.7322 20.7322C26.2011 20.2634 26.837 20 27.5 20H42.5C43.163 20 43.7989 20.2634 44.2678 20.7322C44.7366 21.2011 45 21.837 45 22.5H40C39.337 22.5 38.7011 22.7634 38.2322 23.2322C37.7634 23.7011 37.5 24.337 37.5 25C37.5 25.663 37.7634 26.2989 38.2322 26.7678C38.7011 27.2366 39.337 27.5 40 27.5Z" fill="#10B981"/>
</svg>
