<svg width="30" height="30" viewBox="0 0 30 30" fill="none" xmlns="http://www.w3.org/2000/svg">
<rect width="30" height="30" rx="15" fill="#10B981"/>
<path d="M21.2001 15.8333C21.0168 15.8333 20.8251 15.775 20.6418 15.7333C20.2705 15.6515 19.9056 15.5429 19.5501 15.4083C19.1635 15.2677 18.7385 15.275 18.357 15.4288C17.9755 15.5827 17.6643 15.8722 17.4834 16.2416L17.3001 16.6166C16.4884 16.1651 15.7426 15.6043 15.0834 14.95C14.4291 14.2908 13.8683 13.545 13.4168 12.7333L13.7668 12.5C14.1362 12.3191 14.4257 12.0079 14.5796 11.6264C14.7334 11.2448 14.7407 10.8199 14.6001 10.4333C14.4678 10.077 14.3592 9.7123 14.2751 9.34164C14.2334 9.1583 14.2001 8.96664 14.1751 8.77497C14.0739 8.18799 13.7664 7.65642 13.3081 7.276C12.8498 6.89559 12.2707 6.69131 11.6751 6.69997H9.17508C8.81594 6.6966 8.46029 6.77065 8.13234 6.91708C7.80439 7.06351 7.51184 7.27888 7.27461 7.54854C7.03738 7.81819 6.86103 8.1358 6.75757 8.47973C6.65412 8.82367 6.62598 9.18585 6.67508 9.54164C7.11903 13.0328 8.71344 16.2765 11.2065 18.7605C13.6995 21.2445 16.949 22.8271 20.4418 23.2583H20.7584C21.3729 23.2592 21.9662 23.0337 22.4251 22.625C22.6887 22.3892 22.8993 22.1001 23.043 21.7769C23.1866 21.4537 23.2601 21.1037 23.2584 20.75V18.25C23.2482 17.6711 23.0374 17.1138 22.662 16.673C22.2866 16.2323 21.7699 15.9355 21.2001 15.8333ZM21.6168 20.8333C21.6166 20.9516 21.5913 21.0686 21.5424 21.1763C21.4935 21.2841 21.4223 21.3802 21.3334 21.4583C21.2403 21.5387 21.1314 21.5988 21.0138 21.6346C20.8961 21.6705 20.7722 21.6814 20.6501 21.6666C17.5292 21.2665 14.6303 19.8387 12.4107 17.6085C10.1911 15.3784 8.77709 12.4728 8.39175 9.34997C8.37849 9.2279 8.39011 9.10441 8.42592 8.98696C8.46173 8.86951 8.52098 8.76054 8.60008 8.66664C8.67818 8.57775 8.7743 8.50651 8.88207 8.45765C8.98983 8.4088 9.10676 8.38345 9.22508 8.3833H11.7251C11.9189 8.37899 12.1081 8.44237 12.2602 8.56253C12.4123 8.68269 12.5178 8.85211 12.5584 9.04164C12.5918 9.26942 12.6334 9.49442 12.6834 9.71664C12.7797 10.1559 12.9078 10.5876 13.0668 11.0083L11.9001 11.55C11.8003 11.5957 11.7106 11.6608 11.636 11.7413C11.5615 11.8218 11.5036 11.9163 11.4656 12.0193C11.4277 12.1223 11.4105 12.2317 11.415 12.3414C11.4194 12.4511 11.4455 12.5588 11.4918 12.6583C12.6911 15.2273 14.7561 17.2923 17.3251 18.4916C17.528 18.575 17.7555 18.575 17.9584 18.4916C18.0623 18.4545 18.1579 18.397 18.2394 18.3226C18.3209 18.2482 18.3869 18.1584 18.4334 18.0583L18.9501 16.8916C19.3809 17.0457 19.8206 17.1737 20.2668 17.275C20.489 17.325 20.714 17.3666 20.9417 17.4C21.1313 17.4406 21.3007 17.5461 21.4209 17.6982C21.541 17.8503 21.6044 18.0395 21.6001 18.2333L21.6168 20.8333Z" fill="white"/>
</svg>
