<svg width="69" height="67" viewBox="0 0 69 67" fill="none" xmlns="http://www.w3.org/2000/svg">
<path fill-rule="evenodd" clip-rule="evenodd" d="M67.211 66.2644H1.88435C1.30246 66.2644 0.830688 65.7926 0.830688 65.2107V59.0644C0.830688 58.4825 1.30246 58.0107 1.88435 58.0107H67.2112C67.7931 58.0107 68.2648 58.4825 68.2648 59.0644V65.2107C68.2646 65.7924 67.7929 66.2644 67.211 66.2644ZM2.938 64.1571H66.1575V60.1181H2.938V64.1571Z" fill="#BCBCBC"/>
<path fill-rule="evenodd" clip-rule="evenodd" d="M40.7351 60.1177H28.3603C27.7784 60.1177 27.3066 59.6459 27.3066 59.064V54.9409C27.3066 50.9481 30.5551 47.6997 34.5476 47.6997C38.5404 47.6997 41.7888 50.9481 41.7888 54.9409V59.064C41.7888 59.6459 41.317 60.1177 40.7351 60.1177ZM29.414 58.0104H39.6815V54.9409C39.6815 52.1101 37.3784 49.807 34.5476 49.807C31.7168 49.807 29.414 52.1101 29.414 54.9409V58.0104Z" fill="#BCBCBC"/>
<path fill-rule="evenodd" clip-rule="evenodd" d="M27.4732 32.698C27.2543 32.698 27.0335 32.6299 26.8445 32.4893L14.0446 22.9526C13.5779 22.6048 13.4815 21.9448 13.8291 21.4782L28.4016 1.91908C28.7493 1.45244 29.4095 1.35603 29.876 1.70359L42.6759 11.2401C42.9 11.4071 43.0485 11.6563 43.089 11.9327C43.1294 12.2091 43.0582 12.4904 42.8914 12.7145L38.0429 19.2221C37.6952 19.6888 37.0352 19.7852 36.5685 19.4376C36.1019 19.0899 36.0055 18.4299 36.353 17.9632L40.5721 12.3004L29.462 4.02274L16.1486 21.8919L27.2587 30.1696L31.4777 24.5067C31.8254 24.0401 32.4856 23.9437 32.9521 24.2912C33.4187 24.639 33.5151 25.299 33.1676 25.7656L28.3191 32.2734C28.1122 32.5513 27.7946 32.698 27.4732 32.698Z" fill="#10B981"/>
<path fill-rule="evenodd" clip-rule="evenodd" d="M39.169 10.9956C38.95 10.9956 38.7292 10.9275 38.5403 10.7868C38.0736 10.4391 37.9772 9.77909 38.3248 9.31245L40.4008 6.52592L35.0436 2.53464L32.9676 5.32117C32.6198 5.78781 31.9598 5.88421 31.4932 5.53665C31.0265 5.18891 30.9301 4.52891 31.2777 4.06226L33.9832 0.4308C34.3309 -0.0358461 34.9911 -0.132249 35.4576 0.215312L42.5046 5.46568C42.7287 5.63269 42.8773 5.88184 42.9177 6.15824C42.9581 6.43464 42.887 6.71598 42.7199 6.94007L40.0143 10.5715C39.8077 10.849 39.4904 10.9956 39.169 10.9956Z" fill="#10B981"/>
<path fill-rule="evenodd" clip-rule="evenodd" d="M21.8911 34.1861C21.6721 34.1861 21.4513 34.1181 21.2623 33.9774L14.2153 28.7268C13.9912 28.5598 13.8426 28.3107 13.8022 28.0343C13.7618 27.7579 13.8329 27.4765 14 27.2524L16.7055 23.621C17.0532 23.1543 17.7132 23.0579 18.1798 23.4055C18.6465 23.7532 18.7429 24.4134 18.3953 24.8799L16.3193 27.6664L21.6765 31.6579L23.7525 28.8713C24.1003 28.4047 24.7605 28.3083 25.2269 28.6559C25.6936 29.0036 25.79 29.6638 25.4424 30.1303L22.7369 33.7617C22.5298 34.0396 22.2125 34.1861 21.8911 34.1861Z" fill="#10B981"/>
<path fill-rule="evenodd" clip-rule="evenodd" d="M34.7491 26.9992C33.6521 26.9992 32.5884 26.6485 31.6928 25.9812C30.5932 25.1618 29.8783 23.9633 29.6802 22.6065C29.4819 21.2496 29.824 19.8968 30.6433 18.7973C31.4627 17.6977 32.661 16.9828 34.018 16.7847C35.3749 16.5864 36.7277 16.9285 37.8272 17.7478C38.9268 18.5671 39.6417 19.7655 39.84 21.1225C40.0383 22.4794 39.6962 23.8321 38.8769 24.9317C38.0575 26.0313 36.8592 26.7462 35.5022 26.9445C35.2505 26.9809 34.999 26.9992 34.7491 26.9992ZM34.7663 18.8373C34.6191 18.8373 34.4709 18.8481 34.3224 18.8697C33.5224 18.9866 32.8159 19.4079 32.333 20.0562C31.8501 20.7045 31.6483 21.5018 31.7652 22.302C31.8821 23.1019 32.3034 23.8084 32.9517 24.2913C33.6 24.7742 34.3977 24.9758 35.1975 24.8591C35.9974 24.7422 36.7039 24.3209 37.1868 23.6726C37.6699 23.0243 37.8715 22.2268 37.7546 21.4268C37.6377 20.6269 37.2164 19.9204 36.5681 19.4375C36.0402 19.044 35.4131 18.8373 34.7663 18.8373Z" fill="#BCBCBC"/>
<path fill-rule="evenodd" clip-rule="evenodd" d="M40.7361 56.3079C40.3562 56.3079 39.9892 56.102 39.8012 55.7418C39.5317 55.2259 39.7317 54.5895 40.2473 54.3201C46.0844 51.2718 49.7105 45.2908 49.7105 38.7111C49.7105 31.4758 45.1741 24.8714 38.4219 22.2773C37.8786 22.0686 37.6075 21.4591 37.8162 20.9158C38.025 20.3725 38.6347 20.1014 39.1778 20.3101C42.8573 21.7238 46.0011 24.1849 48.2694 27.4275C50.5908 30.7458 51.8177 34.6476 51.8177 38.7111C51.8177 42.3803 50.802 45.9611 48.8808 49.0661C47.0131 52.0844 44.365 54.5469 41.2227 56.1879C41.0672 56.2694 40.9004 56.3079 40.7361 56.3079Z" fill="#BCBCBC"/>
<path fill-rule="evenodd" clip-rule="evenodd" d="M39.5253 52.3176C39.1653 52.3176 38.8145 52.1329 38.6176 51.8007C38.3211 51.3 38.4869 50.6537 38.9875 50.3572C39.3717 50.1298 39.7496 49.8798 40.1111 49.6142C43.5693 47.0729 45.6336 42.9971 45.6336 38.7113C45.6336 33.1244 42.1251 28.041 36.9031 26.0623C36.3589 25.8562 36.085 25.2479 36.2912 24.7037C36.4973 24.1595 37.1058 23.8857 37.6498 24.0918C40.5852 25.2042 43.0946 27.1549 44.9068 29.7333C46.761 32.3713 47.7411 35.4759 47.7411 38.7115C47.7411 41.2048 47.1393 43.6857 46.0008 45.8857C44.8994 48.0139 43.2944 49.8904 41.3592 51.3124C40.9417 51.6192 40.5051 51.9081 40.0611 52.1707C39.8926 52.2703 39.7079 52.3176 39.5253 52.3176Z" fill="#BCBCBC"/>
<path fill-rule="evenodd" clip-rule="evenodd" d="M32.5365 55.6133H17.4042C16.8224 55.6133 16.3506 55.1416 16.3506 54.5597V47.9152C16.3506 47.3333 16.8224 46.8616 17.4042 46.8616C17.9861 46.8616 18.4579 47.3333 18.4579 47.9152V53.506H32.5365C33.1184 53.506 33.5902 53.9778 33.5902 54.5597C33.5902 55.1416 33.1184 55.6133 32.5365 55.6133Z" fill="#BCBCBC"/>
<path fill-rule="evenodd" clip-rule="evenodd" d="M23.9023 48.9692H10.9062C9.1818 48.9692 7.77893 47.5664 7.77893 45.8419C7.77893 44.1175 9.1818 42.7146 10.9062 42.7146H23.9023C25.6267 42.7146 27.0296 44.1175 27.0296 45.8419C27.0296 47.5662 25.6267 48.9692 23.9023 48.9692ZM10.9062 44.8217C10.3437 44.8217 9.88625 45.2794 9.88625 45.8417C9.88625 46.4042 10.3439 46.8617 10.9062 46.8617H23.9023C24.4648 46.8617 24.9223 46.4041 24.9223 45.8417C24.9223 45.2792 24.4646 44.8217 23.9023 44.8217H10.9062Z" fill="#10B981"/>
<path fill-rule="evenodd" clip-rule="evenodd" d="M34.5476 57.2974C33.0381 57.2974 31.8099 56.0692 31.8099 54.5597C31.8099 53.0502 33.0381 51.822 34.5476 51.822C36.0571 51.822 37.2853 53.0502 37.2853 54.5597C37.2853 56.0692 36.0573 57.2974 34.5476 57.2974ZM34.5476 53.9295C34.2001 53.9295 33.9173 54.2123 33.9173 54.5599C33.9173 54.9074 34.2001 55.1903 34.5476 55.1903C34.8952 55.1903 35.178 54.9074 35.178 54.5599C35.178 54.2121 34.8952 53.9295 34.5476 53.9295Z" fill="#BCBCBC"/>
</svg>
