<svg width="51" height="75" viewBox="0 0 51 75" fill="none" xmlns="http://www.w3.org/2000/svg">
<path fill-rule="evenodd" clip-rule="evenodd" d="M28.4 74.0199C28.34 74.0199 28.26 74.0199 28.2 73.9999C27.58 73.8999 27.16 73.2999 27.26 72.6599L32.86 40.4999C32.96 39.8799 33.56 39.4599 34.2 39.5599C34.82 39.6599 35.24 40.2599 35.14 40.8999L29.54 73.0599C29.42 73.6199 28.94 74.0199 28.4 74.0199Z" fill="#BCBCBC"/>
<path fill-rule="evenodd" clip-rule="evenodd" d="M23.1599 74.0198C22.6199 74.0198 22.1399 73.6398 22.0199 73.0798L15.9599 40.9198C15.8399 40.2998 16.2599 39.6998 16.8799 39.5798C17.4999 39.4598 18.0999 39.8798 18.2199 40.4998L24.2999 72.6398C24.4199 73.2598 23.9999 73.8598 23.3799 73.9798C23.2999 73.9998 23.2199 74.0198 23.1599 74.0198Z" fill="#BCBCBC"/>
<path fill-rule="evenodd" clip-rule="evenodd" d="M49.6199 74.0199H1.47995C0.839947 74.0199 0.319946 73.4999 0.319946 72.8599V49.0999C0.319946 45.9199 2.47995 43.1599 5.55995 42.3999L16.8199 39.5999C17.1599 39.5199 17.5199 39.5999 17.7999 39.7999L25.5399 45.8199L33.2799 39.7999C33.5599 39.5799 33.9199 39.4999 34.2599 39.5999L45.5199 42.3999C48.5999 43.1599 50.7599 45.9199 50.7599 49.0999V72.8599C50.7799 73.4999 50.2599 74.0199 49.6199 74.0199ZM2.63995 71.6999H48.4799V49.0999C48.4799 46.9799 47.0399 45.1399 44.9799 44.6199L34.2599 41.9399L26.2599 48.1599C25.8399 48.4799 25.2599 48.4799 24.8399 48.1599L16.8399 41.9399L6.11995 44.6199C4.05995 45.1399 2.61995 46.9799 2.61995 49.0999V71.6999H2.63995Z" fill="#BCBCBC"/>
<path fill-rule="evenodd" clip-rule="evenodd" d="M10.9 56.8001C10.26 56.8001 9.73999 56.2801 9.73999 55.6401V43.9601C9.73999 39.0801 13.7 35.1201 18.58 35.1201H19.64C20.28 35.1201 20.8 35.6401 20.8 36.2801C20.8 36.9201 20.28 37.4401 19.64 37.4401H18.58C14.98 37.4401 12.06 40.3601 12.06 43.9601V55.6401C12.04 56.2801 11.52 56.8001 10.9 56.8001Z" fill="#10B981"/>
<path fill-rule="evenodd" clip-rule="evenodd" d="M40.96 61.0401C40.32 61.0401 39.8 60.5201 39.8 59.8801V43.9401C39.8 40.3401 36.88 37.4201 33.28 37.4201H31.38C30.74 37.4201 30.22 36.9001 30.22 36.2601C30.22 35.6201 30.74 35.1001 31.38 35.1001H33.28C38.16 35.1001 42.12 39.0601 42.12 43.9401V59.8801C42.1 60.5401 41.58 61.0401 40.96 61.0401Z" fill="#10B981"/>
<path fill-rule="evenodd" clip-rule="evenodd" d="M15.6799 67.2H13.2599C12.6199 67.2 12.0999 66.68 12.0999 66.04C12.0999 65.4 12.6199 64.88 13.2599 64.88H14.5399V60.42C14.5399 59.44 14.1599 58.54 13.4799 57.84C12.7999 57.16 11.8799 56.78 10.8999 56.78C8.89994 56.78 7.25994 58.42 7.25994 60.42V64.88H8.53994C9.17994 64.88 9.69994 65.4 9.69994 66.04C9.69994 66.68 9.17994 67.2 8.53994 67.2H6.09994C5.45994 67.2 4.93994 66.68 4.93994 66.04V60.44C4.93994 57.16 7.59994 54.5 10.8799 54.5C12.4599 54.5 13.9599 55.12 15.0799 56.24C16.1999 57.36 16.8199 58.86 16.8199 60.44V66.04C16.8399 66.68 16.3199 67.2 15.6799 67.2Z" fill="#10B981"/>
<path fill-rule="evenodd" clip-rule="evenodd" d="M40.9599 67.0402C38.6799 67.0402 36.7999 65.1802 36.7999 62.8802C36.7999 60.5802 38.6599 58.7202 40.9599 58.7202C43.2599 58.7202 45.0999 60.6002 45.0999 62.9002C45.0999 65.2002 43.2399 67.0402 40.9599 67.0402ZM40.9599 61.0402C39.9399 61.0402 39.1199 61.8602 39.1199 62.8802C39.1199 63.9002 39.9399 64.7202 40.9599 64.7202C41.9799 64.7202 42.7999 63.9002 42.7999 62.8802C42.7999 61.8602 41.9599 61.0402 40.9599 61.0402Z" fill="#10B981"/>
<path fill-rule="evenodd" clip-rule="evenodd" d="M25.8601 37.88C24.0801 37.88 22.36 37.5 20.74 36.74C19.18 36.02 17.78 34.96 16.58 33.64C14.14 30.94 12.8 27.36 12.8 23.54V17.96C12.8 17.46 13.12 17.04 13.58 16.88C13.6 16.88 16.1 15.98 17.48 14.48C17.88 14.02 18.58 13.96 19.04 14.34C19.1 14.38 20.58 15.5 23.14 16.06C26.64 16.82 30.4001 16.28 34.3201 14.42C34.7801 14.2 35.3001 14.3 35.6401 14.68C35.6601 14.7 37.08 16.2 38.3801 17C38.7201 17.2 38.9201 17.58 38.9201 17.98V23.56C38.9201 27.36 37.5801 30.96 35.1401 33.66C33.9401 34.98 32.54 36.02 30.98 36.76C29.36 37.5 27.6401 37.88 25.8601 37.88ZM15.1 18.76V23.56C15.1 30.2 19.9201 35.6 25.8601 35.6C31.8001 35.6 36.6201 30.2 36.6201 23.56V18.6C35.8201 18.02 35.0401 17.34 34.5401 16.86C32.3601 17.8 30.18 18.4 28.04 18.62C26.12 18.82 24.26 18.7 22.48 18.3C20.62 17.88 19.26 17.22 18.44 16.74C17.32 17.7 15.94 18.4 15.1 18.76Z" fill="#BCBCBC"/>
<path fill-rule="evenodd" clip-rule="evenodd" d="M13.96 19.12C13.52 19.12 13.08 18.86 12.9 18.42C12.28 16.98 12.18 15.42 12.1 14.04C12.02 12.92 11.94 11.5 12.26 10.16C12.54 9 13.24 7.74 14.38 6.34C14.56 6.12 14.74 5.9 14.94 5.7C18.06 2.36 23.24 1.02 24.26 0.799996C26.22 0.339996 28.12 0.179996 29.86 0.319996C31.08 0.419996 32.12 0.579997 33.04 0.839997C34.24 1.18 35.16 1.82 35.72 2.68C36 3.12 36.18 3.6 36.34 4C36.5 4.42 36.64 4.8 36.86 5.04C37.12 5.36 37.48 5.62 37.84 5.92C38.26 6.24 38.68 6.58 39.08 7.04C40.04 8.12 41.14 9.94 41.3 11.78C41.46 13.46 40.78 14.94 40.18 16.04C40.16 16.08 40.12 16.14 40.06 16.26C38.98 18.36 38.76 18.62 38.56 18.82C38.1 19.24 37.36 19.22 36.94 18.74C36.54 18.3 36.54 17.62 36.94 17.18C37.04 17.04 37.32 16.56 38.04 15.18C38.12 15.02 38.16 14.96 38.18 14.92C38.62 14.1 39.12 13.02 39.04 11.98C38.94 10.78 38.14 9.4 37.38 8.56C37.12 8.26 36.78 8 36.44 7.72C36.02 7.38 35.54 7 35.12 6.52C34.66 5.98 34.42 5.36 34.22 4.82C34.08 4.48 33.96 4.16 33.8 3.92C33.48 3.42 32.88 3.16 32.42 3.04C31.66 2.82 30.76 2.68 29.68 2.6C28.16 2.48 26.52 2.62 24.78 3.02C22.3 3.62 18.7 5.06 16.62 7.28C16.46 7.44 16.3 7.62 16.16 7.8C15.24 8.92 14.68 9.9 14.5 10.7C14.26 11.7 14.34 12.88 14.4 13.9C14.48 15.16 14.56 16.44 15.02 17.52C15.28 18.1 15 18.78 14.42 19.04C14.26 19.1 14.1 19.12 13.96 19.12Z" fill="#BCBCBC"/>
<path fill-rule="evenodd" clip-rule="evenodd" d="M18.64 43.14C18.5 43.14 18.36 43.12 18.22 43.06C17.62 42.82 17.34 42.16 17.56 41.56C17.9 40.72 18.46 39 18.5 37.16C18.52 36.34 18.42 35.94 18.28 35.36C18.26 35.24 18.22 35.12 18.2 34.98C18.06 34.36 18.44 33.74 19.06 33.6C19.68 33.46 20.3 33.84 20.44 34.46C20.46 34.58 20.5 34.7 20.52 34.8C20.68 35.46 20.82 36.08 20.8 37.2C20.76 39.3 20.18 41.18 19.7 42.4C19.54 42.86 19.1 43.14 18.64 43.14Z" fill="#BCBCBC"/>
<path fill-rule="evenodd" clip-rule="evenodd" d="M32.46 42.9401C32 42.9401 31.58 42.6801 31.4 42.2401C30.66 40.4401 30.26 38.6601 30.22 36.9401C30.2 36.0401 30.3 35.4801 30.4 35.0001C30.5 34.4801 30.98 34.0801 31.54 34.0801C32.18 34.0801 32.7 34.6001 32.7 35.2401C32.7 35.3201 32.7 35.4001 32.68 35.4801C32.58 35.9001 32.54 36.2801 32.56 36.9001C32.6 38.3401 32.94 39.8401 33.56 41.3801C33.8 41.9601 33.52 42.6401 32.94 42.8801C32.76 42.9201 32.62 42.9401 32.46 42.9401Z" fill="#BCBCBC"/>
</svg>
