<svg width="75" height="76" viewBox="0 0 75 76" fill="none" xmlns="http://www.w3.org/2000/svg">
<path d="M37.5 10.5C39.5711 10.5 41.25 8.82107 41.25 6.75C41.25 4.67893 39.5711 3 37.5 3C35.4289 3 33.75 4.67893 33.75 6.75C33.75 8.82107 35.4289 10.5 37.5 10.5Z" fill="#BCBCBC"/>
<path d="M39.8937 12.5188C39.1549 12.8263 38.3474 13 37.4999 13C36.6524 13 35.8449 12.8275 35.1074 12.52L35.3537 25.5963C35.9049 26.2488 36.2499 27.0813 36.2499 28C36.2499 28.8738 35.9374 29.6688 35.4337 30.3076L35.5037 34.25H39.4974L39.5674 30.3076C39.0637 29.6688 38.7512 28.8738 38.7512 28C38.7512 27.0738 39.1012 26.2363 39.6599 25.5813L39.8962 12.52L39.8937 12.5188Z" fill="#BCBCBC"/>
<path d="M14.6588 18.3663C14.7351 18.4375 16.7926 20.3312 20.9588 19.2875C21.3326 19.1912 21.7301 19.2775 22.0351 19.5175C22.0426 19.5225 23.3363 20.5 25.0001 20.5C26.9763 20.5 27.8201 19.6763 27.8538 19.64C28.0888 19.405 28.4301 19.25 28.7626 19.25H32.7338L32.6826 16.5175C29.3188 15.8538 27.5251 13.79 25.9401 11.9363C24.1326 9.825 22.5726 8 18.7751 8C15.7513 8 12.2701 9.6425 8.90381 11.2325C6.79381 12.2288 4.80006 13.17 2.92256 13.7137C2.62631 13.7963 2.53881 14.025 2.51381 14.1538C2.49506 14.2463 2.45881 14.5638 2.74881 14.7938C3.86006 15.6575 5.38756 15.9075 7.29131 15.525C7.90756 15.395 8.52381 15.7575 8.72381 16.355C8.81631 16.6112 9.78131 18.9587 13.4726 18.0387C13.8963 17.9325 14.3501 18.0575 14.6601 18.3675L14.6588 18.3663Z" fill="#BCBCBC"/>
<path d="M32.5 68C32.9812 68 33.4137 67.7038 33.6175 67.2725L33.5275 62.3788C33.3587 62.3088 33.17 62.2425 32.9937 62.175C31.86 63.5663 31.2512 65.0963 31.2512 66.75C31.2512 67.44 31.81 68 32.5 68Z" fill="#BCBCBC"/>
<path d="M42.5 67.9999C43.19 67.9999 43.75 67.4399 43.75 66.7499C43.75 64.8499 42.9938 63.1024 41.5 61.5562C40.37 60.4024 38.8387 59.3512 36.9537 58.4374C35.3712 57.6649 33.5037 56.9724 31.3975 56.3799C29.815 55.9399 28.75 54.5362 28.75 52.8887C28.75 52.3837 28.855 51.9024 29.0412 51.4637C28.235 51.2537 27.4625 50.9337 26.75 50.5037C26.4312 51.2499 26.25 52.0537 26.25 52.8874C26.25 55.6124 28.0875 58.0362 30.7162 58.7849C31.5312 59.0187 32.295 59.2524 33.02 59.5112C35.15 60.2637 36.9025 61.1249 38.2262 62.0712C40.725 63.8387 41.25 65.5912 41.25 66.7499C41.25 67.4399 41.81 67.9999 42.5 67.9999Z" fill="#10B981"/>
<path d="M47.6425 49.385C46.4962 47.7313 44.6187 46.75 42.6125 46.75H31.25C29.1825 46.75 27.5 45.0675 27.5 43C27.5 42.5338 27.5962 42.0913 27.7525 41.6788C26.9125 41.5838 26.0988 41.37 25.3288 41.0413C25.1188 41.6663 25 42.3175 25 43C25 44.8113 25.7863 46.5313 27.1563 47.7175C28.2863 48.7075 29.7375 49.25 31.25 49.25H42.6125C44.6175 49.25 46.25 50.8825 46.25 52.8875C46.25 54.535 45.1837 55.9388 43.5975 56.38C42.86 56.5838 42.2013 56.7963 41.5725 57.0138L41.55 58.315C41.96 58.6238 42.345 58.9413 42.7037 59.27C43.2112 59.1038 43.7325 58.9425 44.2825 58.785C46.9125 58.0363 48.75 55.6125 48.75 52.8875C48.75 51.6175 48.3662 50.4075 47.6425 49.385Z" fill="#10B981"/>
<path d="M25.395 38.2688C26.3912 38.9137 27.5487 39.25 28.75 39.25H43.75C45.8175 39.25 47.5 40.9325 47.5 43C47.5 43.865 47.1937 44.6512 46.7012 45.2862C47.4387 45.6837 48.1112 46.1962 48.7087 46.7962C49.5375 45.715 50.0012 44.3862 50.0012 43C50.0012 39.5538 47.1975 36.75 43.7512 36.75H28.7512C26.6837 36.75 25.0012 35.0675 25.0012 33C25.0012 30.9325 26.6837 29.25 28.7512 29.25H32.5012C33.1912 29.25 33.7512 28.69 33.7512 28C33.7512 27.31 33.1912 26.75 32.5012 26.75H28.7512C25.305 26.75 22.5012 29.5538 22.5012 33C22.5012 35.15 23.5825 37.1188 25.395 38.2688Z" fill="#10B981"/>
<path d="M39.0762 56.7337L39.1637 51.75H35.835L35.8975 55.2563C36.6537 55.5538 37.38 55.8625 38.0487 56.1887C38.4075 56.3625 38.7387 56.55 39.0762 56.7337Z" fill="#BCBCBC"/>
<path d="M39.3087 44.25L39.3525 41.75H35.6475L35.6912 44.25H39.3087Z" fill="#BCBCBC"/>
<path d="M38.8725 67.6511C38.8 67.3611 38.75 67.0624 38.75 66.7499C38.75 65.9461 38.0488 65.0074 36.7775 64.1086C36.555 63.9499 36.3038 63.7949 36.0513 63.6399L36.2 71.7261C36.2125 72.4286 36.7963 72.9999 37.5 72.9999C38.2038 72.9999 38.7875 72.4286 38.8 71.7261L38.8725 67.6511Z" fill="#BCBCBC"/>
<path d="M67.7101 15.525C69.6126 15.9088 71.1426 15.66 72.2576 14.79C72.5439 14.5637 72.5064 14.2462 72.4889 14.1537C72.4626 14.025 72.3764 13.7975 72.0889 13.7162C70.2026 13.1687 68.2089 12.2288 66.0989 11.2325C62.7326 9.64375 59.2501 8 56.2276 8C52.4301 8 50.8701 9.825 49.0626 11.9362C47.4789 13.79 45.6851 15.8512 42.3251 16.5162L42.2764 19.2487H46.2401C46.5926 19.2487 46.9301 19.3975 47.1676 19.66C47.1826 19.675 48.0264 20.4987 50.0026 20.4987C51.6664 20.4987 52.9601 19.5212 52.9739 19.5112C53.2776 19.28 53.6751 19.1962 54.0439 19.2862C58.2126 20.3287 60.2689 18.4337 60.3551 18.3537C60.6639 18.06 61.1126 17.9287 61.5314 18.0362C65.2101 18.9537 66.1864 16.6087 66.2851 16.3387C66.4951 15.7575 67.1039 15.4037 67.7126 15.5237L67.7101 15.525Z" fill="#BCBCBC"/>
<path d="M46.25 26.75H42.5C41.81 26.75 41.25 27.31 41.25 28C41.25 28.69 41.81 29.25 42.5 29.25H46.25C48.3175 29.25 50 30.9325 50 33C50 34.12 49.4963 35.1163 48.715 35.8038C49.4062 36.2825 50.025 36.8575 50.5538 37.51C51.7838 36.3425 52.5012 34.7312 52.5012 33C52.5012 29.5538 49.6962 26.75 46.25 26.75Z" fill="#10B981"/>
</svg>
