<svg width="48" height="61" viewBox="0 0 48 61" fill="none" xmlns="http://www.w3.org/2000/svg">
<path fill-rule="evenodd" clip-rule="evenodd" d="M44.5274 41.9429C44.0102 41.9429 43.5908 41.5236 43.5908 41.0064V27.0428C43.5908 26.5255 44.0102 26.1062 44.5274 26.1062C45.0446 26.1062 45.464 26.5255 45.464 27.0428V41.0064C45.464 41.5236 45.0446 41.9429 44.5274 41.9429Z" fill="#10B981"/>
<path fill-rule="evenodd" clip-rule="evenodd" d="M21.7815 60.0911C19.0542 60.0911 16.4903 59.029 14.5619 57.1005C12.6334 55.1721 11.5713 52.6082 11.5713 49.8809V43.7565C11.5713 43.2392 11.9906 42.8199 12.5079 42.8199C13.0251 42.8199 13.4445 43.2392 13.4445 43.7565V49.8809C13.4445 54.4779 17.1845 58.2178 21.7815 58.2178C26.3786 58.2178 30.1184 54.4778 30.1184 49.8809V7.82233C30.1184 5.77257 30.9167 3.84574 32.3659 2.39696C33.0958 1.66688 33.9492 1.10005 34.902 0.712408C35.891 0.310294 36.9391 0.122165 38.0158 0.152896C39.9991 0.209807 41.8695 1.05208 43.2827 2.52493C44.689 3.99062 45.4636 5.89208 45.4636 7.87908V20.3449C45.4636 20.8622 45.0443 21.2815 44.5271 21.2815C44.0098 21.2815 43.5905 20.8622 43.5905 20.3449V7.87908C43.5905 4.79355 41.0131 2.11273 37.9622 2.02525C36.348 1.97859 34.8302 2.58135 33.6903 3.72151C32.5947 4.8168 31.9915 6.27306 31.9915 7.82233V49.8809C31.9915 52.6082 30.9293 55.1721 29.001 57.1005C27.0728 59.029 24.5088 60.0911 21.7815 60.0911Z" fill="#10B981"/>
<path fill-rule="evenodd" clip-rule="evenodd" d="M23.4884 31.7792H1.52692C1.00968 31.7792 0.590332 31.3598 0.590332 30.8426C0.590332 30.3254 1.00968 29.906 1.52692 29.906H23.4882C24.0055 29.906 24.4248 30.3254 24.4248 30.8426C24.425 31.3598 24.0056 31.7792 23.4884 31.7792Z" fill="#111827"/>
<path fill-rule="evenodd" clip-rule="evenodd" d="M23.4884 10.37H1.52692C1.00968 10.37 0.590332 9.95065 0.590332 9.43341C0.590332 8.91618 1.00968 8.49683 1.52692 8.49683H23.4882C24.0055 8.49683 24.4248 8.91618 24.4248 9.43341C24.425 9.95065 24.0056 10.37 23.4884 10.37Z" fill="#111827"/>
<path fill-rule="evenodd" clip-rule="evenodd" d="M14.0524 44.6931H10.9632C9.45196 44.6931 8.22236 43.4635 8.22236 41.9523V40.1261H5.9796C3.00789 40.1261 0.590332 37.7085 0.590332 34.7368V2.99291C0.590332 1.42511 1.86578 0.149658 3.43358 0.149658H21.5819C23.1497 0.149658 24.4251 1.42511 24.4251 2.99291V34.7368C24.4251 37.7085 22.0076 40.1261 19.0359 40.1261H16.7931V41.9521C16.7933 43.4635 15.5638 44.6931 14.0524 44.6931ZM3.43375 2.02283C2.89879 2.02283 2.46367 2.45795 2.46367 2.99291V34.7368C2.46367 36.6757 4.0409 38.2529 5.97976 38.2529H9.15911C9.67635 38.2529 10.0957 38.6723 10.0957 39.1895V41.9521C10.0957 42.4305 10.485 42.8197 10.9633 42.8197H14.0526C14.531 42.8197 14.9203 42.4305 14.9203 41.9521V39.1893C14.9203 38.6721 15.3396 38.2528 15.8568 38.2528H19.0362C20.9749 38.2528 22.5523 36.6755 22.5523 34.7367V2.99275C22.5523 2.45779 22.1172 2.02267 21.5822 2.02267L3.43375 2.02283Z" fill="#111827"/>
<path fill-rule="evenodd" clip-rule="evenodd" d="M44.5272 27.9789C42.8914 27.9789 41.5605 26.6481 41.5605 25.0122V20.3445C41.5605 19.8273 41.9799 19.408 42.4971 19.408H46.5573C47.0745 19.408 47.4939 19.8273 47.4939 20.3445V25.0122C47.4939 26.6481 46.163 27.9789 44.5272 27.9789ZM43.4337 21.2811V25.0122C43.4337 25.6151 43.9243 26.1057 44.5272 26.1057C45.1301 26.1057 45.6207 25.6151 45.6207 25.0122V21.2811H43.4337Z" fill="#111827"/>
</svg>
