<svg width="51" height="54" viewBox="0 0 51 54" fill="none" xmlns="http://www.w3.org/2000/svg">
<path fill-rule="evenodd" clip-rule="evenodd" d="M11.8461 53.512C8.85235 53.512 6.0377 52.3462 3.92077 50.2293L3.29788 49.6064C1.18095 47.4895 0.0151367 44.6748 0.0151367 41.681C0.0151367 38.6872 1.18095 35.8726 3.29788 33.7557L11.9837 25.0698C12.3037 24.7498 12.8226 24.7498 13.1427 25.0698L28.4573 40.3845C28.611 40.5381 28.6974 40.7465 28.6974 40.9639C28.6974 41.1813 28.611 41.3898 28.4573 41.5434L19.7715 50.2293C17.6546 52.3462 14.8399 53.512 11.8461 53.512ZM12.5632 26.8082L4.45686 34.9145C0.725808 38.6455 0.725808 44.7163 4.45686 48.4473L5.07975 49.0701C8.81081 52.8012 14.8816 52.8012 18.6125 49.0701L26.7189 40.9638L12.5632 26.8082Z" fill="#10B981"/>
<path fill-rule="evenodd" clip-rule="evenodd" d="M15.4748 29.3807C15.2651 29.3807 15.0554 29.3007 14.8953 29.1407L6.2095 20.4548C4.09257 18.3379 2.92676 15.5233 2.92676 12.5295C2.92676 9.5357 4.09257 6.72105 6.2095 4.60412L6.83239 3.98123C8.94932 1.8643 11.764 0.698486 14.7578 0.698486C17.7515 0.698486 20.5662 1.8643 22.6831 3.98123L31.369 12.6671C31.5226 12.8207 31.609 13.0292 31.609 13.2466C31.609 13.464 31.5226 13.6724 31.369 13.826L16.0543 29.1407C15.8944 29.3006 15.6845 29.3807 15.4748 29.3807ZM14.7579 2.34192C12.3075 2.34192 9.85704 3.27469 7.99151 5.14021L7.36863 5.7631C5.56129 7.57044 4.56592 9.97349 4.56592 12.5295C4.56592 15.0855 5.56129 17.4885 7.36863 19.2959L15.475 27.4022L29.6306 13.2466L21.5243 5.14021C19.6588 3.27469 17.2083 2.34192 14.7579 2.34192Z" fill="#111827"/>
<path fill-rule="evenodd" clip-rule="evenodd" d="M12.5632 26.4688C12.3535 26.4688 12.1438 26.3888 11.9837 26.2287C11.6636 25.9086 11.6636 25.3897 11.9837 25.0698L27.2984 9.75512C27.6185 9.43514 28.1372 9.43514 28.4574 9.75512C28.7773 10.0752 28.7773 10.5941 28.4574 10.9141L13.1427 26.2287C12.9827 26.3888 12.773 26.4688 12.5632 26.4688Z" fill="#111827"/>
<path fill-rule="evenodd" clip-rule="evenodd" d="M24.9658 44.6956C24.756 44.6956 24.5463 44.6156 24.3863 44.4556L9.07163 29.1408C8.75151 28.8207 8.75151 28.3019 9.07163 27.9818C9.39161 27.6617 9.9105 27.6617 10.2306 27.9818L25.5453 43.2966C25.8652 43.6167 25.8652 44.1354 25.5453 44.4556C25.3852 44.6155 25.1755 44.6956 24.9658 44.6956Z" fill="#10B981"/>
<path fill-rule="evenodd" clip-rule="evenodd" d="M21.2892 30.221C21.0795 30.221 20.8698 30.141 20.7097 29.981C20.3897 29.661 20.3897 29.1421 20.7097 28.822L23.5278 26.0039C23.8479 25.6839 24.3666 25.6839 24.6868 26.0039C25.0067 26.324 25.0067 26.8429 24.6868 27.1629L21.8688 29.981C21.7086 30.141 21.4989 30.221 21.2892 30.221Z" fill="#111827"/>
<path fill-rule="evenodd" clip-rule="evenodd" d="M24.1074 30.221C23.8977 30.221 23.6879 30.141 23.5279 29.981L20.7098 27.1629C20.3897 26.8429 20.3897 26.3239 20.7098 26.0039C21.0299 25.6839 21.5487 25.6839 21.8688 26.0039L24.6869 28.822C25.0069 29.1421 25.0069 29.6608 24.6869 29.981C24.5268 30.141 24.3171 30.221 24.1074 30.221Z" fill="#111827"/>
<path fill-rule="evenodd" clip-rule="evenodd" d="M46.4215 22.4991C46.2118 22.4991 46.0021 22.4191 45.842 22.259C45.5221 21.9389 45.5221 21.42 45.842 21.1L48.6601 18.282C48.9802 17.962 49.499 17.962 49.8191 18.282C50.1391 18.6021 50.1391 19.121 49.8191 19.441L47.001 22.259C46.8411 22.4191 46.6314 22.4991 46.4215 22.4991Z" fill="#111827"/>
<path fill-rule="evenodd" clip-rule="evenodd" d="M49.2396 22.4991C49.0299 22.4991 48.8202 22.4191 48.6601 22.259L45.842 19.441C45.5221 19.1208 45.5221 18.602 45.842 18.282C46.1622 17.962 46.681 17.962 47.001 18.282L49.8191 21.1C50.1391 21.42 50.1391 21.9391 49.8191 22.259C49.659 22.4191 49.4493 22.4991 49.2396 22.4991Z" fill="#111827"/>
<path fill-rule="evenodd" clip-rule="evenodd" d="M40.5817 48.0897C40.372 48.0897 40.1623 48.0098 40.0022 47.8497C39.6822 47.5296 39.6822 47.0109 40.0022 46.6907L42.8203 43.8727C43.1404 43.5525 43.6591 43.5525 43.9792 43.8727C44.2992 44.1928 44.2992 44.7115 43.9792 45.0316L41.1612 47.8497C41.0011 48.0098 40.7914 48.0897 40.5817 48.0897Z" fill="#111827"/>
<path fill-rule="evenodd" clip-rule="evenodd" d="M43.3998 48.0897C43.19 48.0897 42.9803 48.0098 42.8203 47.8497L40.0022 45.0316C39.6822 44.7115 39.6822 44.1928 40.0022 43.8727C40.3223 43.5525 40.8411 43.5525 41.1612 43.8727L43.9792 46.6907C44.2992 47.0109 44.2992 47.5296 43.9792 47.8497C43.8192 48.0098 43.6095 48.0897 43.3998 48.0897Z" fill="#111827"/>
<path fill-rule="evenodd" clip-rule="evenodd" d="M38.7583 23.6786C37.416 23.6786 36.3242 22.5866 36.3242 21.2444C36.3242 19.9023 37.4162 18.8103 38.7583 18.8103C40.1004 18.8103 41.1925 19.9023 41.1925 21.2444C41.1925 22.5866 40.1005 23.6786 38.7583 23.6786ZM38.7583 20.4492C38.3199 20.4492 37.9631 20.8059 37.9631 21.2444C37.9631 21.6829 38.3198 22.0396 38.7583 22.0396C39.1968 22.0396 39.5535 21.6829 39.5535 21.2444C39.5535 20.8059 39.1968 20.4492 38.7583 20.4492Z" fill="#111827"/>
<path fill-rule="evenodd" clip-rule="evenodd" d="M38.7583 38.9637C37.416 38.9637 36.3242 37.8718 36.3242 36.5297C36.3242 35.1876 37.4162 34.0955 38.7583 34.0955C40.1004 34.0955 41.1925 35.1874 41.1925 36.5297C41.1925 37.8718 40.1005 38.9637 38.7583 38.9637ZM38.7583 35.7345C38.3199 35.7345 37.9631 36.0912 37.9631 36.5297C37.9631 36.9682 38.3198 37.3248 38.7583 37.3248C39.1968 37.3248 39.5535 36.9682 39.5535 36.5297C39.5535 36.0912 39.1968 35.7345 38.7583 35.7345Z" fill="#111827"/>
<path fill-rule="evenodd" clip-rule="evenodd" d="M46.4009 31.3212C45.0586 31.3212 43.9668 30.2292 43.9668 28.8871C43.9668 27.545 45.0588 26.4529 46.4009 26.4529C47.743 26.4529 48.8349 27.5449 48.8349 28.8871C48.8349 30.2292 47.7431 31.3212 46.4009 31.3212ZM46.4009 28.0918C45.9625 28.0918 45.6057 28.4484 45.6057 28.8869C45.6057 29.3254 45.9624 29.6821 46.4009 29.6821C46.8394 29.6821 47.196 29.3254 47.196 28.8869C47.1959 28.4484 46.8394 28.0918 46.4009 28.0918Z" fill="#111827"/>
<path fill-rule="evenodd" clip-rule="evenodd" d="M31.1157 31.3212C29.7735 31.3212 28.6816 30.2292 28.6816 28.8871C28.6816 27.545 29.7736 26.4529 31.1157 26.4529C32.4579 26.4529 33.5498 27.5449 33.5498 28.8871C33.5498 30.2292 32.4578 31.3212 31.1157 31.3212ZM31.1157 28.0918C30.6772 28.0918 30.3205 28.4484 30.3205 28.8869C30.3205 29.3254 30.6772 29.6821 31.1157 29.6821C31.5542 29.6821 31.9109 29.3254 31.9109 28.8869C31.9107 28.4484 31.5541 28.0918 31.1157 28.0918Z" fill="#111827"/>
<path fill-rule="evenodd" clip-rule="evenodd" d="M45.2594 28.5651C45.0497 28.5651 44.84 28.4851 44.6799 28.3251L39.3201 22.9654C39.0001 22.6453 39.0001 22.1264 39.3201 21.8064C39.6402 21.4864 40.1589 21.4864 40.479 21.8064L45.8389 27.1661C46.1589 27.4862 46.1589 28.0049 45.8389 28.3251C45.6788 28.4851 45.4691 28.5651 45.2594 28.5651Z" fill="#111827"/>
<path fill-rule="evenodd" clip-rule="evenodd" d="M37.6168 36.2079C37.4071 36.2079 37.1974 36.128 37.0373 35.9679L31.6775 30.6081C31.3575 30.2879 31.3575 29.7692 31.6775 29.4491C31.9976 29.129 32.5163 29.129 32.8365 29.4491L38.1963 34.8089C38.5163 35.129 38.5163 35.6478 38.1963 35.9679C38.0362 36.1278 37.8265 36.2079 37.6168 36.2079Z" fill="#111827"/>
<path fill-rule="evenodd" clip-rule="evenodd" d="M32.257 28.5651C32.0473 28.5651 31.8375 28.4851 31.6775 28.3251C31.3575 28.0049 31.3575 27.4862 31.6775 27.1661L37.0373 21.8064C37.3574 21.4864 37.8763 21.4864 38.1963 21.8064C38.5163 22.1264 38.5163 22.6454 38.1963 22.9654L32.8365 28.3251C32.6764 28.485 32.4667 28.5651 32.257 28.5651Z" fill="#111827"/>
<path fill-rule="evenodd" clip-rule="evenodd" d="M39.9 36.2079C39.6903 36.2079 39.4806 36.128 39.3206 35.9679C39.0006 35.6478 39.0006 35.129 39.3206 34.8089L44.6804 29.4491C45.0005 29.129 45.5192 29.129 45.8394 29.4491C46.1594 29.7692 46.1594 30.2879 45.8394 30.6081L40.4795 35.9679C40.3195 36.1278 40.1098 36.2079 39.9 36.2079Z" fill="#111827"/>
</svg>
