<svg width="60" height="60" fill="none" xmlns="http://www.w3.org/2000/svg"><path d="M37.35 16.4h8.95l-1.975 2a2.5 2.5 0 000 3.525 2.5 2.5 0 003.525 0l6.25-6.25a2.5 2.5 0 000-3.525L47.85 5.9a2.5 2.5 0 00-3.525 3.525L46.3 11.4h-8.95a2.5 2.5 0 000 5zM48.6 32.5c-.55 0-1.125-.175-1.675-.3a23.597 23.597 0 01-3.275-.975 5 5 0 00-6.2 2.5l-.55 1.125a30.448 30.448 0 01-6.65-5 30.45 30.45 0 01-5-6.65l1.05-.7a5 5 0 002.5-6.2 25.84 25.84 0 01-.975-3.275 18.547 18.547 0 01-.3-1.7 7.5 7.5 0 00-7.5-6.225h-7.5a7.5 7.5 0 00-7.5 8.525 47.5 47.5 0 0041.3 41.15h.95a7.5 7.5 0 005-1.9 7.5 7.5 0 002.5-5.625v-7.5A7.5 7.5 0 0048.6 32.5zm1.25 15a2.5 2.5 0 01-.85 1.875 2.65 2.65 0 01-2.05.625 42.5 42.5 0 01-36.775-36.95A2.725 2.725 0 0110.8 11a2.5 2.5 0 011.875-.85h7.5a2.5 2.5 0 012.5 1.975c.1.683.225 1.358.375 2.025a27.804 27.804 0 001.15 3.875l-3.5 1.625a2.501 2.501 0 00-1.225 3.325 36.225 36.225 0 0017.5 17.5 2.5 2.5 0 001.9 0 2.5 2.5 0 001.425-1.3l1.55-3.5c1.292.462 2.611.846 3.95 1.15a27.1 27.1 0 002.025.375 2.5 2.5 0 011.975 2.5l.05 7.8z" fill="#10B981"/></svg>