<svg width="60" height="60" fill="none" xmlns="http://www.w3.org/2000/svg"><path d="M50.275 43.725L37.5 21.825V10H40a2.5 2.5 0 100-5H20a2.5 2.5 0 000 5h2.5v11.825l-12.775 21.9A7.5 7.5 0 0016.2 55h27.5a7.5 7.5 0 006.475-11.275h.1zm-23.125-20a2.5 2.5 0 00.35-1.225V10h5v12.5a2.5 2.5 0 00.35 1.25L35 27.5H25l2.15-3.775zm18.8 25a2.5 2.5 0 01-2.15 1.25H16.3a2.5 2.5 0 01-2.15-3.75L22.075 32.5H37.95l8 13.75a2.5 2.5 0 010 2.5v-.025zM25 37.5a2.5 2.5 0 100 5 2.5 2.5 0 000-5zM35 40a2.5 2.5 0 100 5 2.5 2.5 0 000-5z" fill="#10B981"/></svg>