<svg width="60" height="60" fill="none" xmlns="http://www.w3.org/2000/svg"><path d="M42.5 15h-5v-5h5a2.5 2.5 0 000-5h-20A12.5 12.5 0 0010 17.5v35a2.5 2.5 0 005 0v-35a7.5 7.5 0 017.5-7.5h10v5h-5a7.5 7.5 0 00-7.5 7.5v12.325a7.5 7.5 0 003.35 6.25l4.15 2.775V45a5 5 0 005 5v2.5a2.5 2.5 0 005 0V50a5 5 0 005-5v-1.15l4.15-2.775a7.5 7.5 0 003.35-6.25V22.5a7.5 7.5 0 00-7.5-7.5zM40 27.5h5V30h-2.5a2.5 2.5 0 000 5H45a2.5 2.5 0 01-1.1 1.9l-5.25 3.525A2.5 2.5 0 0037.5 42.5V45h-5v-2.5a2.499 2.499 0 00-1.125-2.075l-5.25-3.525A2.5 2.5 0 0125 34.825V22.5a2.5 2.5 0 012.5-2.5h15a2.5 2.5 0 012.5 2.5h-5a2.5 2.5 0 000 5z" fill="#10B981"/></svg>