<svg width="30" height="30" fill="none" xmlns="http://www.w3.org/2000/svg"><rect width="30" height="30" rx="15" fill="#10B981"/><path d="M21.2 15.833c-.183 0-.375-.058-.558-.1a7.857 7.857 0 01-1.092-.325 1.667 1.667 0 00-2.067.834l-.183.375a10.151 10.151 0 01-2.217-1.667 10.151 10.151 0 01-1.666-2.217l.35-.233a1.667 1.667 0 00.833-2.067 8.608 8.608 0 01-.325-1.091 6.171 6.171 0 01-.1-.567 2.5 2.5 0 00-2.5-2.075h-2.5a2.5 2.5 0 00-2.5 2.842 15.833 15.833 0 0013.767 13.716h.316a2.5 2.5 0 002.285-1.481 2.5 2.5 0 00.215-1.027v-2.5a2.5 2.5 0 00-2.058-2.417zm.417 5a.833.833 0 01-.603.802.883.883 0 01-.364.032A14.166 14.166 0 018.392 9.35a.908.908 0 01.208-.683.833.833 0 01.625-.284h2.5a.833.833 0 01.833.659 9.546 9.546 0 00.509 1.966l-1.167.542a.833.833 0 00-.408 1.108 12.074 12.074 0 005.833 5.834c.203.083.43.083.633 0a.832.832 0 00.475-.434l.517-1.166c.43.154.87.282 1.317.383.222.05.447.092.675.125a.833.833 0 01.658.833l.017 2.6z" fill="#fff"/></svg>