<svg width="51" height="75" fill="none" xmlns="http://www.w3.org/2000/svg"><path fill-rule="evenodd" clip-rule="evenodd" d="M28.4 74.02c-.06 0-.14 0-.2-.02-.62-.1-1.04-.7-.94-1.34l5.6-32.16c.1-.62.7-1.04 1.34-.94.62.1 1.04.7.94 1.34l-5.6 32.16c-.12.56-.6.96-1.14.96zm-5.24 0c-.54 0-1.02-.38-1.14-.94l-6.06-32.16c-.12-.62.3-1.22.92-1.34.62-.12 1.22.3 1.34.92l6.08 32.14c.12.62-.3 1.22-.92 1.34-.08.02-.16.04-.22.04z" fill="#BCBCBC"/><path fill-rule="evenodd" clip-rule="evenodd" d="M49.62 74.02H1.48c-.64 0-1.16-.52-1.16-1.16V49.1c0-3.18 2.16-5.94 5.24-6.7l11.26-2.8c.34-.08.7 0 .98.2l7.74 6.02 7.74-6.02c.28-.22.64-.3.98-.2l11.26 2.8c3.08.76 5.24 3.52 5.24 6.7v23.76c.02.64-.5 1.16-1.14 1.16zM2.64 71.7h45.84V49.1a4.62 4.62 0 00-3.5-4.48l-10.72-2.68-8 6.22c-.42.32-1 .32-1.42 0l-8-6.22-10.72 2.68a4.62 4.62 0 00-3.5 4.48v22.6h.02z" fill="#BCBCBC"/><path fill-rule="evenodd" clip-rule="evenodd" d="M10.9 56.8c-.64 0-1.16-.52-1.16-1.16V43.96c0-4.88 3.96-8.84 8.84-8.84h1.06a1.16 1.16 0 010 2.32h-1.06c-3.6 0-6.52 2.92-6.52 6.52v11.68c-.02.64-.54 1.16-1.16 1.16zm30.06 4.24c-.64 0-1.16-.52-1.16-1.16V43.94c0-3.6-2.92-6.52-6.52-6.52h-1.9a1.16 1.16 0 010-2.32h1.9c4.88 0 8.84 3.96 8.84 8.84v15.94c-.02.66-.54 1.16-1.16 1.16z" fill="#10B981"/><path fill-rule="evenodd" clip-rule="evenodd" d="M15.68 67.2h-2.42a1.16 1.16 0 010-2.32h1.28v-4.46c0-.98-.38-1.88-1.06-2.58a3.63 3.63 0 00-2.58-1.06c-2 0-3.64 1.64-3.64 3.64v4.46h1.28a1.16 1.16 0 010 2.32H6.1c-.64 0-1.16-.52-1.16-1.16v-5.6a5.94 5.94 0 0111.88 0v5.6c.02.64-.5 1.16-1.14 1.16zm25.28-.16a4.17 4.17 0 01-4.16-4.16c0-2.3 1.86-4.16 4.16-4.16s4.14 1.88 4.14 4.18-1.86 4.14-4.14 4.14zm0-6c-1.02 0-1.84.82-1.84 1.84s.82 1.84 1.84 1.84 1.84-.82 1.84-1.84-.84-1.84-1.84-1.84z" fill="#10B981"/><path fill-rule="evenodd" clip-rule="evenodd" d="M25.86 37.88c-1.78 0-3.5-.38-5.12-1.14-1.56-.72-2.96-1.78-4.16-3.1-2.44-2.7-3.78-6.28-3.78-10.1v-5.58c0-.5.32-.92.78-1.08.02 0 2.52-.9 3.9-2.4.4-.46 1.1-.52 1.56-.14.06.04 1.54 1.16 4.1 1.72 3.5.76 7.26.22 11.18-1.64a1.1 1.1 0 011.32.26c.02.02 1.44 1.52 2.74 2.32.34.2.54.58.54.98v5.58c0 3.8-1.34 7.4-3.78 10.1-1.2 1.32-2.6 2.36-4.16 3.1-1.62.74-3.34 1.12-5.12 1.12zM15.1 18.76v4.8c0 6.64 4.82 12.04 10.76 12.04 5.94 0 10.76-5.4 10.76-12.04V18.6c-.8-.58-1.58-1.26-2.08-1.74-2.18.94-4.36 1.54-6.5 1.76-1.92.2-3.78.08-5.56-.32-1.86-.42-3.22-1.08-4.04-1.56-1.12.96-2.5 1.66-3.34 2.02z" fill="#BCBCBC"/><path fill-rule="evenodd" clip-rule="evenodd" d="M13.96 19.12c-.44 0-.88-.26-1.06-.7-.62-1.44-.72-3-.8-4.38-.08-1.12-.16-2.54.16-3.88.28-1.16.98-2.42 2.12-3.82.18-.22.36-.44.56-.64 3.12-3.34 8.3-4.68 9.32-4.9 1.96-.46 3.86-.62 5.6-.48 1.22.1 2.26.26 3.18.52 1.2.34 2.12.98 2.68 1.84.28.44.46.92.62 1.32.16.42.3.8.52 1.04.26.32.62.58.98.88.42.32.84.66 1.24 1.12.96 1.08 2.06 2.9 2.22 4.74.16 1.68-.52 3.16-1.12 4.26-.02.04-.06.1-.12.22-1.08 2.1-1.3 2.36-1.5 2.56-.46.42-1.2.4-1.62-.08-.4-.44-.4-1.12 0-1.56.1-.14.38-.62 1.1-2 .08-.16.12-.22.14-.26.44-.82.94-1.9.86-2.94-.1-1.2-.9-2.58-1.66-3.42-.26-.3-.6-.56-.94-.84-.42-.34-.9-.72-1.32-1.2-.46-.54-.7-1.16-.9-1.7-.14-.34-.26-.66-.42-.9-.32-.5-.92-.76-1.38-.88-.76-.22-1.66-.36-2.74-.44-1.52-.12-3.16.02-4.9.42-2.48.6-6.08 2.04-8.16 4.26-.16.16-.32.34-.46.52-.92 1.12-1.48 2.1-1.66 2.9-.24 1-.16 2.18-.1 3.2.08 1.26.16 2.54.62 3.62.26.58-.02 1.26-.6 1.52-.16.06-.32.08-.46.08zm4.68 24.02c-.14 0-.28-.02-.42-.08-.6-.24-.88-.9-.66-1.5.34-.84.9-2.56.94-4.4.02-.82-.08-1.22-.22-1.8-.02-.12-.06-.24-.08-.38a1.149 1.149 0 112.24-.52c.02.12.06.24.08.34.16.66.3 1.28.28 2.4-.04 2.1-.62 3.98-1.1 5.2-.16.46-.6.74-1.06.74zm13.82-.2c-.46 0-.88-.26-1.06-.7-.74-1.8-1.14-3.58-1.18-5.3-.02-.9.08-1.46.18-1.94.1-.52.58-.92 1.14-.92.64 0 1.16.52 1.16 1.16 0 .08 0 .16-.02.24-.1.42-.14.8-.12 1.42.04 1.44.38 2.94 1 4.48.24.58-.04 1.26-.62 1.5a2.1 2.1 0 01-.48.06z" fill="#BCBCBC"/></svg>